<svg xmlns="http://www.w3.org/2000/svg" xmlns:svg="http://www.w3.org/2000/svg" xmlns:xlink="http://www.w3.org/1999/xlink" id="svg2" width="841mm" height="594mm" version="1.1" viewBox="0 0 2979.921 2104.724"><metadata id="metadata7"/><g id="layer1" transform="translate(0,1052.3622)"><g id="g17839" transform="translate(72.637766,60.236194)"><rect id="rect7484" width="283.465" height="283.465" x="0" y="-1052.362" style="opacity:.93999999;fill:#000;fill-opacity:1;stroke:none;stroke-width:1.79999995;stroke-linecap:round;stroke-linejoin:round;stroke-miterlimit:4;stroke-dasharray:none;stroke-dashoffset:0;stroke-opacity:1"/><rect id="rect7484-6" width="283.465" height="283.465" x="283.465" y="-1052.362" style="opacity:.93999999;fill:#fff;fill-opacity:1;stroke:none;stroke-width:1.79999995;stroke-linecap:round;stroke-linejoin:round;stroke-miterlimit:4;stroke-dasharray:none;stroke-dashoffset:0;stroke-opacity:1"/><use id="use14227" width="100%" height="100%" x="0" y="0" transform="translate(566.92914,2.2265625e-6)" xlink:href="#rect7484"/><use id="use14229" width="100%" height="100%" x="0" y="0" transform="translate(566.92914,2.2265625e-6)" xlink:href="#rect7484-6"/><use id="use14233" width="100%" height="100%" x="0" y="0" transform="matrix(-1,0,0,1,566.92914,283.46457)" xlink:href="#rect7484"/><use id="use14235" width="100%" height="100%" x="0" y="0" transform="matrix(-1,0,0,1,566.92914,283.46457)" xlink:href="#rect7484-6"/><use id="use14237" width="100%" height="100%" x="0" y="0" transform="matrix(-1,0,0,1,1133.8583,283.46457)" xlink:href="#rect7484"/><use id="use14239" width="100%" height="100%" x="0" y="0" transform="matrix(-1,0,0,1,1133.8583,283.46457)" xlink:href="#rect7484-6"/><use id="use14243" width="100%" height="100%" x="0" y="0" transform="translate(-5.7421875e-7,566.92914)" xlink:href="#rect7484"/><use id="use14245" width="100%" height="100%" x="0" y="0" transform="translate(-5.7421875e-7,566.92914)" xlink:href="#rect7484-6"/><use id="use14247" width="100%" height="100%" x="0" y="0" transform="translate(566.92914,566.92914)" xlink:href="#rect7484"/><use id="use14249" width="100%" height="100%" x="0" y="0" transform="translate(566.92914,566.92914)" xlink:href="#rect7484-6"/><use id="use15187" width="100%" height="100%" x="0" y="0" transform="translate(1133.8583,2.2265625e-6)" xlink:href="#rect7484"/><use id="use15189" width="100%" height="100%" x="0" y="0" transform="translate(1133.8582,2.2265625e-6)" xlink:href="#use14235"/><use id="use15191" width="100%" height="100%" x="0" y="0" transform="translate(1133.8583,2.2265625e-6)" xlink:href="#use14243"/><use id="use15693" width="100%" height="100%" x="0" y="0" transform="translate(-5.7421875e-7,566.92914)" xlink:href="#use14233"/><use id="use15695" width="100%" height="100%" x="0" y="0" transform="translate(-5.7421875e-7,566.92914)" xlink:href="#use14235"/><use id="use15697" width="100%" height="100%" x="0" y="0" transform="translate(-5.7421875e-7,566.92914)" xlink:href="#use14237"/><use id="use15699" width="100%" height="100%" x="0" y="0" transform="translate(-5.7421875e-7,566.92914)" xlink:href="#use14239"/><use id="use15701" width="100%" height="100%" x="0" y="0" transform="translate(-5.7421875e-7,566.92914)" xlink:href="#use15189"/><use id="use15802" width="100%" height="100%" x="0" y="0" transform="translate(566.92913,2.2265625e-6)" xlink:href="#use14229"/><use id="use15804" width="100%" height="100%" x="0" y="0" transform="translate(566.92914,2.2265625e-6)" xlink:href="#use14237"/><use id="use15806" width="100%" height="100%" x="0" y="0" transform="translate(566.92913,2.2265625e-6)" xlink:href="#use14249"/><use id="use15808" width="100%" height="100%" x="0" y="0" transform="translate(566.92914,2.2265625e-6)" xlink:href="#use15697"/><use id="use16162" width="100%" height="100%" x="0" y="0" transform="translate(566.92913,2.2265625e-6)" xlink:href="#use15187"/><use id="use16164" width="100%" height="100%" x="0" y="0" transform="translate(566.92914,2.2265625e-6)" xlink:href="#use15189"/><use id="use16166" width="100%" height="100%" x="0" y="0" transform="translate(566.92913,2.2265625e-6)" xlink:href="#use15191"/><use id="use16168" width="100%" height="100%" x="0" y="0" transform="translate(566.92914,2.2265625e-6)" xlink:href="#use15701"/><use id="use16170" width="100%" height="100%" x="0" y="0" transform="translate(-5.7421875e-7,566.92913)" xlink:href="#use14243"/><use id="use16172" width="100%" height="100%" x="0" y="0" transform="translate(-5.7421875e-7,566.92913)" xlink:href="#use14245"/><use id="use16174" width="100%" height="100%" x="0" y="0" transform="translate(-5.7421875e-7,566.92913)" xlink:href="#use14247"/><use id="use16176" width="100%" height="100%" x="0" y="0" transform="translate(-5.7421875e-7,566.92913)" xlink:href="#use14249"/><use id="use16178" width="100%" height="100%" x="0" y="0" transform="translate(-5.7421875e-7,566.92914)" xlink:href="#use15191"/><use id="use16180" width="100%" height="100%" x="0" y="0" transform="translate(-5.7421875e-7,566.92914)" xlink:href="#use15806"/><use id="use16182" width="100%" height="100%" x="0" y="0" transform="translate(-5.7421875e-7,566.92914)" xlink:href="#use16166"/><use id="use16794" width="100%" height="100%" x="0" y="0" transform="translate(566.92914,2.2265625e-6)" xlink:href="#use15802"/><use id="use16796" width="100%" height="100%" x="0" y="0" transform="translate(566.92913,2.2265625e-6)" xlink:href="#use15804"/><use id="use16798" width="100%" height="100%" x="0" y="0" transform="translate(566.92914,2.2265625e-6)" xlink:href="#use15806"/><use id="use16800" width="100%" height="100%" x="0" y="0" transform="translate(566.92914,2.2265625e-6)" xlink:href="#use15808"/><use id="use16802" width="100%" height="100%" x="0" y="0" transform="translate(566.92914,2.2265625e-6)" xlink:href="#use16180"/><use id="use17161" width="100%" height="100%" x="0" y="0" transform="translate(-5.7421875e-7,566.92913)" xlink:href="#use15693"/><use id="use17163" width="100%" height="100%" x="0" y="0" transform="translate(-5.7421875e-7,566.92913)" xlink:href="#use15695"/><use id="use17165" width="100%" height="100%" x="0" y="0" transform="translate(-5.7421875e-7,566.92913)" xlink:href="#use15697"/><use id="use17167" width="100%" height="100%" x="0" y="0" transform="translate(-5.7421875e-7,566.92913)" xlink:href="#use15699"/><use id="use17169" width="100%" height="100%" x="0" y="0" transform="translate(-5.7421875e-7,566.92913)" xlink:href="#use15701"/><use id="use17171" width="100%" height="100%" x="0" y="0" transform="translate(-5.7421875e-7,566.92913)" xlink:href="#use15808"/><use id="use17173" width="100%" height="100%" x="0" y="0" transform="translate(-5.7421875e-7,566.92913)" xlink:href="#use16168"/><use id="use17175" width="100%" height="100%" x="0" y="0" transform="translate(-5.7421875e-7,566.92913)" xlink:href="#use16800"/><use id="use17325" width="100%" height="100%" x="0" y="0" transform="translate(566.92914,2.2265625e-6)" xlink:href="#use16162"/><use id="use17327" width="100%" height="100%" x="0" y="0" transform="translate(566.92913,2.2265625e-6)" xlink:href="#use16164"/><use id="use17329" width="100%" height="100%" x="0" y="0" transform="translate(566.92914,2.2265625e-6)" xlink:href="#use16166"/><use id="use17331" width="100%" height="100%" x="0" y="0" transform="translate(566.92914,2.2265625e-6)" xlink:href="#use16168"/><use id="use17333" width="100%" height="100%" x="0" y="0" transform="translate(566.92913,2.2265625e-6)" xlink:href="#use16182"/><use id="use17335" width="100%" height="100%" x="0" y="0" transform="translate(566.92914,2.2265625e-6)" xlink:href="#use17173"/><use id="use17807" width="100%" height="100%" x="0" y="0" transform="translate(566.92915,2.2265626e-6)" xlink:href="#use16794"/><use id="use17809" width="100%" height="100%" x="0" y="0" transform="translate(566.92915,2.2265626e-6)" xlink:href="#use16796"/><use id="use17811" width="100%" height="100%" x="0" y="0" transform="translate(566.92915,2.2265626e-6)" xlink:href="#use16798"/><use id="use17813" width="100%" height="100%" x="0" y="0" transform="translate(566.92915,2.2265626e-6)" xlink:href="#use16800"/><use id="use17815" width="100%" height="100%" x="0" y="0" transform="translate(566.92915,2.2265626e-6)" xlink:href="#use16802"/><use id="use17817" width="100%" height="100%" x="0" y="0" transform="translate(566.92915,2.2265626e-6)" xlink:href="#use17175"/><use id="use17819" width="100%" height="100%" x="0" y="0" transform="translate(3.1128906e-5,566.92913)" xlink:href="#use16170"/><use id="use17821" width="100%" height="100%" x="0" y="0" transform="translate(3.1128906e-5,566.92913)" xlink:href="#use16172"/><use id="use17823" width="100%" height="100%" x="0" y="0" transform="translate(3.1128906e-5,566.92913)" xlink:href="#use16174"/><use id="use17825" width="100%" height="100%" x="0" y="0" transform="translate(3.1128906e-5,566.92913)" xlink:href="#use16176"/><use id="use17827" width="100%" height="100%" x="0" y="0" transform="translate(3.1128906e-5,566.92913)" xlink:href="#use16178"/><use id="use17829" width="100%" height="100%" x="0" y="0" transform="translate(3.1128906e-5,566.92913)" xlink:href="#use16180"/><use id="use17831" width="100%" height="100%" x="0" y="0" transform="translate(3.1128906e-5,566.92913)" xlink:href="#use16182"/><use id="use17833" width="100%" height="100%" x="0" y="0" transform="translate(3.1128906e-5,566.92913)" xlink:href="#use16802"/><use id="use17835" width="100%" height="100%" x="0" y="0" transform="translate(3.1128906e-5,566.92913)" xlink:href="#use17333"/><use id="use17837" width="100%" height="100%" x="0" y="0" transform="translate(3.1128906e-5,566.92913)" xlink:href="#use17815"/></g></g></svg>